<svg version="1.1" xmlns="http://www.w3.org/2000/svg" style="display: block;" viewBox="0 0 2048 869" width="1584" height="672" preserveAspectRatio="none">
<path transform="translate(0,0)" fill="rgb(166,220,241)" d="M 0 0 L 2048 0 L 2048 541.851 L 2048 589.38 L 2048 666.707 L 2048 727.997 L 2048 800.209 L 2048 815.187 L 2048 869 L 0 869 L 0 820.011 L 0 731.416 L 0 713.137 L 0 666.683 L 0 576.033 L 0 560.483 L 0 552.031 L 0 0 z"/>
<path transform="translate(0,0)" fill="rgb(91,195,233)" d="M 1938.76 549.311 C 1955.84 544.037 1965.41 548.275 1979.32 545.616 C 2010.28 539.696 2015.71 526.948 2048 541.851 L 2048 589.38 L 2048 666.707 L 2048 727.997 L 2048 800.209 L 2048 815.187 L 2048 869 L 0 869 L 0 820.011 L 0 731.416 L 0 713.137 L 0 666.683 L 38.8692 666.673 L 91.9476 666.63 L 211.009 666.746 C 232.115 666.839 272.274 668.17 291.818 666.709 L 571.034 666.872 C 599.847 666.852 630.146 667.336 658.825 666.787 L 1048.92 666.674 C 1151.43 666.648 1257.03 665.333 1359.28 666.733 C 1387.93 666.782 1418.41 666.282 1446.9 666.94 C 1459.81 666.915 1564.49 667.529 1568.2 665.919 L 1570.36 662.432 C 1573.11 657.566 1577.38 652.773 1581.02 648.605 C 1595.77 631.745 1618.92 633.312 1636.44 624.721 C 1657.98 614.156 1666.75 598.269 1693.35 594.511 C 1716.07 591.3 1733.24 598.206 1755.27 597.702 C 1764.9 596.737 1769.85 594.807 1778.79 591.186 C 1785.88 587.597 1799.36 580.284 1806.72 579.256 C 1843.24 574.154 1869.2 595.035 1904.84 571.074 C 1911.54 566.355 1919.06 561.309 1925.29 556.087 C 1930.16 553.236 1933.61 551.622 1938.76 549.311 z"/>
<path transform="translate(0,0)" fill="rgb(14,157,205)" d="M 1938.76 549.311 C 1955.84 544.037 1965.41 548.275 1979.32 545.616 C 2010.28 539.696 2015.71 526.948 2048 541.851 L 2048 589.38 L 2048 666.707 L 2048 727.997 C 1839.66 731.009 1631.28 731.05 1422.94 728.121 C 1370.16 727.612 1317.38 726.377 1264.63 724.416 C 1244.82 723.511 1214.81 722.885 1196.42 718.915 C 1213.66 713.933 1239.64 713.275 1257.78 711.467 C 1307.04 706.558 1368.07 707.039 1415.91 696.946 C 1396.33 692.439 1373.18 692.11 1352.99 691.339 C 1323.35 690.282 1293.7 689.533 1264.04 689.09 C 1160.38 687.066 1056.69 686.017 953.006 685.946 C 809.857 685.36 666.706 685.902 523.566 687.573 C 480.367 688.066 437.173 688.871 393.985 689.989 C 365.859 690.761 335.455 691.067 307.668 694.908 C 329.591 698.642 353.495 699.643 375.811 701.02 C 411.598 702.941 447.361 705.274 483.094 708.019 C 469.325 710.571 452.702 710.716 438.564 711.245 C 409.496 712.333 380.278 711.824 351.193 712.299 C 234.132 713.42 117.065 713.699 0 713.137 L 0 666.683 L 38.8692 666.673 L 91.9476 666.63 L 211.009 666.746 C 232.115 666.839 272.274 668.17 291.818 666.709 L 571.034 666.872 C 599.847 666.852 630.146 667.336 658.825 666.787 L 1048.92 666.674 C 1151.43 666.648 1257.03 665.333 1359.28 666.733 C 1387.93 666.782 1418.41 666.282 1446.9 666.94 C 1459.81 666.915 1564.49 667.529 1568.2 665.919 L 1570.36 662.432 C 1573.11 657.566 1577.38 652.773 1581.02 648.605 C 1595.77 631.745 1618.92 633.312 1636.44 624.721 C 1657.98 614.156 1666.75 598.269 1693.35 594.511 C 1716.07 591.3 1733.24 598.206 1755.27 597.702 C 1764.9 596.737 1769.85 594.807 1778.79 591.186 C 1785.88 587.597 1799.36 580.284 1806.72 579.256 C 1843.24 574.154 1869.2 595.035 1904.84 571.074 C 1911.54 566.355 1919.06 561.309 1925.29 556.087 C 1930.16 553.236 1933.61 551.622 1938.76 549.311 z"/>
<path transform="translate(0,0)" fill="rgb(104,159,72)" d="M 1938.76 549.311 C 1955.84 544.037 1965.41 548.275 1979.32 545.616 C 2010.28 539.696 2015.71 526.948 2048 541.851 L 2048 589.38 L 2048 666.707 C 2005.69 665.925 1961.94 666.415 1919.53 666.394 L 1680.79 666.542 C 1665.32 666.566 1576.6 668.461 1568.2 665.919 L 1570.36 662.432 C 1573.11 657.566 1577.38 652.773 1581.02 648.605 C 1595.77 631.745 1618.92 633.312 1636.44 624.721 C 1657.98 614.156 1666.75 598.269 1693.35 594.511 C 1716.07 591.3 1733.24 598.206 1755.27 597.702 C 1764.9 596.737 1769.85 594.807 1778.79 591.186 C 1785.88 587.597 1799.36 580.284 1806.72 579.256 C 1843.24 574.154 1869.2 595.035 1904.84 571.074 C 1911.54 566.355 1919.06 561.309 1925.29 556.087 C 1930.16 553.236 1933.61 551.622 1938.76 549.311 z"/>
<path transform="translate(0,0)" fill="rgb(79,117,58)" d="M 1570.36 662.432 C 1595.69 657.298 1620.91 652.929 1646.91 652.031 C 1680.42 650.874 1714.35 654.77 1747.78 651.841 C 1777 649.281 1802.39 637.223 1832.2 636.342 C 1861.44 635.478 1887.97 650.11 1916.18 646.55 C 1929.95 644.814 1939.48 630.968 1953.31 626.478 C 1967.72 621.8 1994.84 626.043 2006.71 619.289 C 2026.06 608.27 2021.98 595.984 2048 589.38 L 2048 666.707 C 2005.69 665.925 1961.94 666.415 1919.53 666.394 L 1680.79 666.542 C 1665.32 666.566 1576.6 668.461 1568.2 665.919 L 1570.36 662.432 z"/>
<path transform="translate(0,0)" fill="rgb(14,157,205)" d="M -1.42109e-14 731.416 C 138.524 731.065 277.049 731.961 415.557 734.102 C 451.925 734.605 488.285 735.564 524.629 736.979 C 540.49 737.682 569.542 738.646 584.189 742.563 C 559.689 750.184 496.623 752.889 468.468 754.616 C 389.259 759.474 308.854 761.82 229.585 766.6 C 204.25 768.128 155.414 769.438 133.072 776.689 C 149.515 781.577 204.744 786.776 211.19 793.446 C 210.77 795.057 210.742 795.197 209.359 796.026 C 186.199 809.902 36.7972 816.82 0 820.011 L 0 731.416 z"/>
<path transform="translate(0,0)" fill="rgb(14,157,205)" d="M 1671.92 808.426 C 1696.67 800.394 1789.54 798.631 1818.57 798.321 C 1855.6 797.927 1907.18 796.516 1943.94 797.896 L 1947.02 797.938 C 1957.89 802.791 1964.96 806.948 1970.96 817.968 C 1907.37 819.493 1843.74 819.181 1780.16 817.033 C 1751.95 816.204 1698.06 814.646 1671.92 808.426 z"/>
<path transform="translate(0,0)" fill="rgb(166,220,241)" d="M 1975.68 763.704 C 1980.71 777.129 1985.01 786.61 1999.1 792.918 C 2001.91 794.177 2005.29 794.849 2006.22 797.054 C 2005.12 797.85 2004.32 798.538 2003.04 799.028 L 2001.73 798.967 C 1990.86 804.259 1986.77 807.301 1980.33 817.9 C 1980.04 819.164 1976.28 828.682 1975.61 830.454 L 1970.96 817.968 C 1964.96 806.948 1957.89 802.791 1947.02 797.938 L 1943.94 797.896 C 1945.84 795.294 1948.47 794.156 1951.39 792.802 C 1966.18 785.941 1970.42 778.73 1975.68 763.704 z"/>
<path transform="translate(0,0)" fill="rgb(134,206,229)" d="M 1947.02 797.938 C 1965.5 798.058 1983.29 798.579 2001.73 798.967 C 1990.86 804.259 1986.77 807.301 1980.33 817.9 C 1980.04 819.164 1976.28 828.682 1975.61 830.454 L 1970.96 817.968 C 1964.96 806.948 1957.89 802.791 1947.02 797.938 z"/>
<path transform="translate(0,0)" fill="rgb(14,157,205)" d="M 2003.04 799.028 C 2018.36 798.973 2032.88 799.964 2048 800.209 L 2048 815.187 C 2030.09 816.483 1998.02 818.269 1980.33 817.9 C 1986.77 807.301 1990.86 804.259 2001.73 798.967 L 2003.04 799.028 z"/>
<path transform="translate(0,0)" fill="rgb(14,157,205)" d="M 1179.57 754.474 C 1225.24 754.062 1545.64 752.749 1562.68 764.151 L 1561.91 765.341 C 1553 768.574 1528.37 769.47 1517.5 770.186 C 1462.51 773.808 1407.04 772.986 1352.14 774.792 C 1274.96 776.808 1188.89 775.115 1111.54 773.514 C 1082.6 772.988 1053.68 772.084 1024.76 770.803 C 1003.55 769.799 981.431 769.119 960.722 764.446 C 988.974 759.259 1022.16 758.199 1051.18 757.136 C 1093.96 755.76 1136.76 754.873 1179.57 754.474 z"/>
<path transform="translate(0,0)" fill="rgb(14,157,205)" d="M 641.269 797.482 C 660.374 796.841 683.299 797.395 702.712 797.522 C 739.451 797.651 776.187 798.116 812.918 798.917 C 842.991 799.359 873.055 800.318 903.095 801.792 C 925.595 802.904 947.465 803.753 969.588 808.196 C 950.076 813.348 905.943 814.77 884.84 815.639 C 824.583 817.804 764.294 818.97 703.998 819.137 C 633.849 819.472 563.698 818.694 493.574 816.802 C 461.59 815.925 402.185 814.621 372.325 808.364 C 394.726 803.152 438.964 801.78 463.037 800.849 C 522.429 798.892 581.845 797.77 641.269 797.482 z"/>
<path transform="translate(0,0)" fill="rgb(14,157,205)" d="M 843.624 728.541 C 879.35 726.981 996.246 727.494 1024.92 737.612 C 997.535 743.893 945.31 744.923 915.75 745.43 C 877.259 746.309 838.749 745.839 800.291 744.022 C 792.334 743.651 746.65 742.178 742.664 737.801 L 743.435 736.216 C 753.989 730.461 827.661 728.959 843.624 728.541 z"/>
<path transform="translate(0,0)" fill="rgb(14,157,205)" d="M 1075.39 846.482 C 1095.04 846.22 1114.7 846.254 1134.34 846.585 C 1148.72 846.822 1227.3 848.703 1233.21 854.816 C 1227.63 862.689 1143.18 863.238 1127.72 863.594 C 1088.86 864.79 1000.13 865.113 964.2 855.457 C 983.503 847.658 1051.87 847.02 1075.39 846.482 z"/>
<path transform="translate(0,0)" fill="rgb(253,254,254)" d="M 562.022 182.585 C 568.979 181.923 575.916 181.064 582.825 180.011 C 590.201 186.686 596.385 192.187 604.231 198.341 L 604.03 213.027 C 601.496 210.973 599.116 208.499 595.927 208.494 L 595.272 209.818 C 596.624 213.667 600.281 215.562 603.734 218.036 L 604.184 227.771 C 601.719 225.803 598.796 222.917 595.804 222.773 C 594.78 226.276 601.633 231.045 604.247 233.144 C 604.224 236.741 604.129 240.562 604.282 244.138 C 601.77 242.098 598.765 239.06 595.709 238.976 C 594.921 242.903 602.175 247.815 605.082 250.177 C 603.705 254.023 604.12 257.968 604.243 262.058 C 601.756 259.877 598.729 256.584 595.613 256.295 C 595.322 260.299 601.599 265.355 604.445 268.014 L 604.133 279.39 C 601.895 277.171 599.144 273.849 596.22 273.294 C 596.085 276.436 598.339 279.05 600.426 281.334 C 601.651 282.663 602.894 283.974 604.156 285.268 C 603.928 289.986 604.265 291.525 605.128 296.184 C 602.828 293.083 598.589 286.516 594.432 287.341 C 594.416 289.743 595.833 291.163 597.287 293.066 L 594.814 297.294 C 594.949 301.585 595.578 302.397 597.86 306.12 L 595.367 308.241 C 594.595 316.491 600.685 315.7 595.081 321.942 C 593.371 323.847 598.912 338.962 599.891 341.111 C 604.107 352.14 608.94 362.912 612.414 374.305 C 610.948 377.075 615.628 411.769 616.179 417.494 L 625.971 522.234 L 616.013 522.867 C 610.985 522.859 606.019 523.186 601.001 523.464 C 593.844 524.736 582.664 523.829 574.669 524.69 C 574.362 529.058 573.562 529.234 575.585 531.946 C 579.405 532.406 581.378 532.003 584.862 532.145 C 581.266 532.662 577.661 533.102 574.047 533.466 C 573.837 537.543 572.62 544.496 574.387 547.303 C 576.498 548.736 578.148 548.397 580.758 548.334 C 577.96 548.746 574.678 548.644 573.226 550.437 L 571.377 568.867 L 566.352 644.718 L 572.044 644.818 C 572.089 649.886 572.589 661.787 571.218 666.069 L 571.034 666.872 L 291.818 666.709 C 272.274 668.17 232.115 666.839 211.009 666.746 L 91.9476 666.63 L 38.8692 666.673 L 0 666.683 L 0 576.033 L 0 560.483 L 0 552.031 C 54.1044 550.03 108.521 546.5 162.69 544.266 L 168.417 544.005 C 175.427 544.214 186.225 543.221 193.94 543.061 L 200.111 542.399 C 238.833 507.723 283.205 471.451 323.004 437.421 L 562.036 232.567 L 562.131 227.434 L 561.947 218.844 L 562.32 213.598 C 561.512 204.177 561.941 192.208 562.022 182.585 z"/>
<path transform="translate(0,0)" fill="rgb(42,94,134)" d="M 0 560.483 L 540.046 534.518 C 539.879 539.525 539.364 545.246 539.028 550.306 C 536.613 576.781 531.416 619.393 530.875 644.843 C 536.111 644.828 549.348 645.139 553.798 644.036 C 557.657 645.19 562.265 644.807 566.352 644.718 L 572.044 644.818 C 572.089 649.886 572.589 661.787 571.218 666.069 L 571.034 666.872 L 291.818 666.709 C 272.274 668.17 232.115 666.839 211.009 666.746 L 91.9476 666.63 L 38.8692 666.673 L 0 666.683 L 0 576.033 L 0 560.483 z"/>
<path transform="translate(0,0)" fill="rgb(166,220,241)" d="M 262.889 563.277 C 295.559 562.84 332.643 560.111 365.798 558.528 L 539.028 550.306 C 536.613 576.781 531.416 619.393 530.875 644.843 C 536.111 644.828 549.348 645.139 553.798 644.036 C 557.657 645.19 562.265 644.807 566.352 644.718 L 572.044 644.818 C 572.089 649.886 572.589 661.787 571.218 666.069 L 571.034 666.872 L 291.818 666.709 L 291.797 652.199 L 262.878 652.211 L 262.889 563.277 z"/>
<path transform="translate(0,0)" fill="rgb(216,218,218)" d="M 530.875 644.843 C 536.111 644.828 549.348 645.139 553.798 644.036 C 557.657 645.19 562.265 644.807 566.352 644.718 L 572.044 644.818 C 572.089 649.886 572.589 661.787 571.218 666.069 C 551.203 665.072 523.613 665.886 502.85 665.813 C 502.615 659.113 502.779 651.71 502.792 644.951 L 530.875 644.843 z"/>
<path transform="translate(0,0)" fill="rgb(166,220,241)" d="M 73.5137 572.184 C 128.221 570.915 184.152 566.767 239.029 564.794 L 239.099 652.15 L 211.017 652.12 L 211.009 666.746 L 91.9476 666.63 L 91.9703 653.905 L 73.8668 653.756 C 73.8586 627.434 74.4499 598.28 73.5137 572.184 z"/>
<path transform="translate(0,0)" fill="rgb(166,220,241)" d="M 0 576.033 C 19.021 575.086 38.3994 574.3 57.3724 573.082 L 57.3409 653.892 L 38.9246 653.798 L 38.8692 666.673 L 0 666.683 L 0 576.033 z"/>
<path transform="translate(0,0)" fill="rgb(162,163,163)" d="M 582.825 180.011 C 590.201 186.686 596.385 192.187 604.231 198.341 L 604.03 213.027 C 601.496 210.973 599.116 208.499 595.927 208.494 L 595.272 209.818 C 596.624 213.667 600.281 215.562 603.734 218.036 L 604.184 227.771 C 601.719 225.803 598.796 222.917 595.804 222.773 C 594.78 226.276 601.633 231.045 604.247 233.144 C 604.224 236.741 604.129 240.562 604.282 244.138 C 601.77 242.098 598.765 239.06 595.709 238.976 C 594.921 242.903 602.175 247.815 605.082 250.177 C 603.705 254.023 604.12 257.968 604.243 262.058 C 601.756 259.877 598.729 256.584 595.613 256.295 C 595.322 260.299 601.599 265.355 604.445 268.014 L 604.133 279.39 C 601.895 277.171 599.144 273.849 596.22 273.294 C 596.085 276.436 598.339 279.05 600.426 281.334 C 601.651 282.663 602.894 283.974 604.156 285.268 C 603.928 289.986 604.265 291.525 605.128 296.184 C 602.828 293.083 598.589 286.516 594.432 287.341 C 594.416 289.743 595.833 291.163 597.287 293.066 L 594.814 297.294 C 594.949 301.585 595.578 302.397 597.86 306.12 L 595.367 308.241 C 594.595 316.491 600.685 315.7 595.081 321.942 C 593.371 323.847 598.912 338.962 599.891 341.111 C 604.107 352.14 608.94 362.912 612.414 374.305 C 610.948 377.075 615.628 411.769 616.179 417.494 L 625.971 522.234 L 616.013 522.867 C 610.985 522.859 606.019 523.186 601.001 523.464 C 593.844 524.736 582.664 523.829 574.669 524.69 C 574.362 529.058 573.562 529.234 575.585 531.946 C 579.405 532.406 581.378 532.003 584.862 532.145 C 581.266 532.662 577.661 533.102 574.047 533.466 C 573.837 537.543 572.62 544.496 574.387 547.303 C 576.498 548.736 578.148 548.397 580.758 548.334 C 577.96 548.746 574.678 548.644 573.226 550.437 L 571.377 568.867 L 566.352 644.718 C 562.265 644.807 557.657 645.19 553.798 644.036 C 555.599 613.832 558.687 582.02 561.136 551.752 L 576.599 361.07 C 578.78 333.378 583.237 300.759 583.274 273.319 C 583.314 244.026 585.393 208.689 582.825 180.011 z"/>
<path transform="translate(0,0)" fill="rgb(113,115,116)" d="M 586.33 346.714 C 590.926 347.746 597.114 348.956 601.512 350.211 C 603.617 363.092 617.281 520.329 616.013 522.867 C 610.985 522.859 606.019 523.186 601.001 523.464 C 593.844 524.736 582.664 523.829 574.669 524.69 C 575.152 508.438 583.735 379.317 585.815 375.984 C 586.375 365.792 585.405 358.195 586.33 346.714 z"/>
<path transform="translate(0,0)" fill="rgb(166,220,241)" d="M 585.815 375.984 C 586.451 390.249 594.733 519.715 596.97 522.883 L 601.001 523.464 C 593.844 524.736 582.664 523.829 574.669 524.69 C 575.152 508.438 583.735 379.317 585.815 375.984 z"/>
<path transform="translate(0,0)" fill="rgb(166,220,241)" d="M 200.111 542.399 C 238.833 507.723 283.205 471.451 323.004 437.421 L 562.036 232.567 L 562.31 241.147 L 562.153 246.454 C 539.916 268.026 514.791 289.988 491.745 310.901 L 375.844 415.88 L 284.33 498.057 C 269.724 511.201 251.668 528.497 236.843 540.76 L 231.872 541.046 C 220.967 540.715 210.852 542.293 200.111 542.399 z"/>
<path transform="translate(0,0)" fill="rgb(42,94,134)" d="M 562.31 241.147 L 562.153 246.454 C 539.916 268.026 514.791 289.988 491.745 310.901 L 375.844 415.88 L 284.33 498.057 C 269.724 511.201 251.668 528.497 236.843 540.76 L 231.872 541.046 C 238.413 533.508 257.236 517.253 265.307 510.002 L 331.364 450.825 C 408.728 381.354 485.711 311.461 562.31 241.147 z"/>
<path transform="translate(0,0)" fill="rgb(166,220,241)" d="M 236.843 540.76 C 251.668 528.497 269.724 511.201 284.33 498.057 L 375.844 415.88 L 491.745 310.901 C 514.791 289.988 539.916 268.026 562.153 246.454 C 562.181 248.87 562.089 253.673 562.343 255.878 L 562.085 261.519 C 557.229 266.353 551.488 271.782 546.857 276.706 C 480.882 338.825 415.436 404.082 349.66 466.942 L 300.976 513.665 C 294.616 519.802 281.118 533.525 274.515 538.827 L 269.628 538.973 C 258.707 539.698 247.778 540.294 236.843 540.76 z"/>
<path transform="translate(0,0)" fill="rgb(42,94,134)" d="M 562.343 255.878 L 562.085 261.519 C 557.229 266.353 551.488 271.782 546.857 276.706 C 480.882 338.825 415.436 404.082 349.66 466.942 L 300.976 513.665 C 294.616 519.802 281.118 533.525 274.515 538.827 L 269.628 538.973 C 276.216 531.098 292.064 516.741 300.148 509.019 L 360.033 451.872 L 562.343 255.878 z"/>
<path transform="translate(0,0)" fill="rgb(166,220,241)" d="M 562.085 261.519 C 562.131 264.526 562.045 269.216 562.274 272.066 L 561.989 278.345 C 524.555 313.888 480.195 361.83 444.218 399.455 L 311.122 537.05 L 309.775 537.242 C 306.906 538.252 278.9 538.985 274.515 538.827 C 281.118 533.525 294.616 519.802 300.976 513.665 L 349.66 466.942 C 415.436 404.082 480.882 338.825 546.857 276.706 C 551.488 271.782 557.229 266.353 562.085 261.519 z"/>
<path transform="translate(0,0)" fill="rgb(42,94,134)" d="M 562.274 272.066 L 561.989 278.345 C 524.555 313.888 480.195 361.83 444.218 399.455 L 311.122 537.05 L 309.775 537.242 C 308.05 536.813 308.772 537.227 307.53 535.966 C 311.767 528.385 362.238 479.256 372.538 468.627 L 553.483 280.813 L 562.274 272.066 z"/>
<path transform="translate(0,0)" fill="rgb(166,220,241)" d="M 311.122 537.05 L 444.218 399.455 C 480.195 361.83 524.555 313.888 561.989 278.345 L 561.391 288.612 L 560.144 295.734 L 450.579 421.957 C 417.384 459.357 384.491 497.024 351.903 534.954 L 346.817 535.136 C 334.722 535.245 323.063 536.781 311.122 537.05 z"/>
<path transform="translate(0,0)" fill="rgb(42,94,134)" d="M 346.817 535.136 C 388.355 485.013 434.586 434.955 477.373 385.31 C 496.058 363.306 514.869 341.409 533.806 319.621 C 540.645 311.745 554.291 295.196 561.391 288.612 L 560.144 295.734 L 450.579 421.957 C 417.384 459.357 384.491 497.024 351.903 534.954 L 346.817 535.136 z"/>
<path transform="translate(0,0)" fill="rgb(166,220,241)" d="M 560.144 295.734 C 560.126 298.224 560.383 306.288 559.463 308.01 L 558.894 311.749 L 450.343 453.244 C 434.539 473.555 401.541 512.749 388.764 533.125 L 387.927 533.251 C 383.933 534.652 358.082 534.6 351.903 534.954 C 384.491 497.024 417.384 459.357 450.579 421.957 L 560.144 295.734 z"/>
<path transform="translate(0,0)" fill="rgb(42,94,134)" d="M 387.927 533.251 C 386.219 533.281 386.201 533.158 384.708 532.459 C 385.067 529.189 409.682 498.865 413.906 493.484 C 450.691 446.749 487.032 399.664 522.921 352.237 C 527.642 346.08 554.182 309.603 558.437 306.437 L 559.463 308.01 L 558.894 311.749 L 450.343 453.244 C 434.539 473.555 401.541 512.749 388.764 533.125 L 387.927 533.251 z"/>
<path transform="translate(0,0)" fill="rgb(166,220,241)" d="M 388.764 533.125 C 401.541 512.749 434.539 473.555 450.343 453.244 L 558.894 311.749 C 558.849 315.089 558.831 323.26 557.493 326 L 556.937 329.749 C 546.476 348.811 533.349 367.179 522.017 385.689 C 492.37 434.114 456.371 483.153 427.266 531.441 L 423.058 532.157 C 411.631 531.547 400.342 533.629 388.764 533.125 z"/>
<path transform="translate(0,0)" fill="rgb(42,94,134)" d="M 423.058 532.157 C 423.595 528.524 512.41 393.462 522.98 376.899 L 546.179 340.46 C 549.192 335.698 553.04 328.303 556.395 324.426 L 557.493 326 L 556.937 329.749 C 546.476 348.811 533.349 367.179 522.017 385.689 C 492.37 434.114 456.371 483.153 427.266 531.441 L 423.058 532.157 z"/>
<path transform="translate(0,0)" fill="rgb(166,220,241)" d="M 556.937 329.749 C 557.009 333.457 557.588 341.114 556.261 344.178 C 555.829 347.736 555.528 351.432 554.413 354.824 L 491.423 480.346 C 487.573 487.969 469.839 524.783 466.3 529.775 L 463.11 529.824 C 451.165 530.424 439.217 530.963 427.266 531.441 C 456.371 483.153 492.37 434.114 522.017 385.689 C 533.349 367.179 546.476 348.811 556.937 329.749 z"/>
<path transform="translate(0,0)" fill="rgb(42,94,134)" d="M 463.11 529.824 C 464.055 524.179 479.71 495.068 483.097 488.371 L 529.53 396.028 C 532.94 389.176 553.458 345.972 556.261 344.178 C 555.829 347.736 555.528 351.432 554.413 354.824 L 491.423 480.346 C 487.573 487.969 469.839 524.783 466.3 529.775 L 463.11 529.824 z"/>
<path transform="translate(0,0)" fill="rgb(166,220,241)" d="M 554.413 354.824 C 554.358 358.032 554.392 377.176 553.339 378.78 C 552.878 384.692 552.667 388.569 551.254 394.356 C 543.334 413.398 534.311 442.948 527.408 463.195 C 520.963 482.097 510.526 509.37 505.331 527.843 L 501.157 527.774 C 489.108 529.725 477.928 528.53 466.3 529.775 C 469.839 524.783 487.573 487.969 491.423 480.346 L 554.413 354.824 z"/>
<path transform="translate(0,0)" fill="rgb(42,94,134)" d="M 501.157 527.774 C 501.671 525.121 508.96 504.856 510.279 501.032 L 531.786 438.416 L 546.238 395.904 C 547.652 391.674 550.677 380.769 552.461 377.565 L 553.339 378.78 C 552.878 384.692 552.667 388.569 551.254 394.356 C 543.334 413.398 534.311 442.948 527.408 463.195 C 520.963 482.097 510.526 509.37 505.331 527.843 L 501.157 527.774 z"/>
<path transform="translate(0,0)" fill="rgb(166,220,241)" d="M 505.331 527.843 C 510.526 509.37 520.963 482.097 527.408 463.195 C 534.311 442.948 543.334 413.398 551.254 394.356 C 552.238 404.163 549.543 421.649 548.971 432.15 C 547.365 461.606 541.53 497.047 540.924 526.089 C 529.789 526.533 516.224 526.756 505.331 527.843 z"/>
<path transform="translate(0,0)" fill="rgb(166,220,241)" d="M 1045.89 505.825 C 1058.69 506.007 1072.28 505.98 1084.98 506.929 L 1089.85 506.761 C 1096.19 506.874 1122.65 507.164 1127.88 509.205 L 1131.81 508.399 C 1136.95 508.753 1169.2 510.173 1170.82 510.927 L 1175.53 511.037 C 1185.88 511.751 1206.04 511.876 1214.58 513.12 L 1219.53 513.018 C 1229.06 513.333 1248.05 513.504 1256.66 515.083 L 1261.61 514.951 C 1273.52 515.978 1286.56 516.124 1297.91 517.249 L 1302.55 517.375 C 1315.38 518.64 1328.02 517.465 1341.08 519.049 L 1344.24 519.026 C 1353 519.675 1375.04 521.423 1382.87 520.85 L 1384.43 521.187 L 1395.27 521.896 L 1401.95 521.952 C 1408.84 522.359 1415.73 522.716 1422.62 523.023 C 1430.27 523.15 1436.35 523.309 1443.94 524.1 L 1444.11 532.11 L 1444.92 538.693 C 1444.92 541.323 1445.27 546.375 1444.13 548.412 L 1444.44 549.526 L 1440.46 550.36 C 1441.51 550.526 1444.22 550.724 1444.67 551.33 C 1447.23 554.721 1446.73 564.318 1446.78 568.793 C 1448.27 593.935 1450.44 619.666 1451.65 644.729 L 1445.97 644.909 C 1445.99 649.098 1445.74 662.956 1446.69 666.181 L 1446.9 666.94 C 1418.41 666.282 1387.93 666.782 1359.28 666.733 C 1257.03 665.333 1151.43 666.648 1048.92 666.674 L 658.825 666.787 C 630.146 667.336 599.847 666.852 571.034 666.872 L 571.218 666.069 C 572.589 661.787 572.089 649.886 572.044 644.818 L 566.352 644.718 L 571.377 568.867 L 573.226 550.437 C 574.678 548.644 577.96 548.746 580.758 548.334 C 578.148 548.397 576.498 548.736 574.387 547.303 C 572.62 544.496 573.837 537.543 574.047 533.466 C 577.661 533.102 581.266 532.662 584.862 532.145 C 581.378 532.003 579.405 532.406 575.585 531.946 C 573.562 529.234 574.362 529.058 574.669 524.69 C 582.664 523.829 593.844 524.736 601.001 523.464 C 606.019 523.186 610.985 522.859 616.013 522.867 L 625.971 522.234 C 639.621 521.778 653.259 520.989 666.871 519.867 L 670.689 520.491 C 675.098 519.446 695.857 519.122 701.493 518.726 C 727.627 516.892 758.568 517.24 784.366 513.96 L 785.151 514.147 C 788.028 515.578 860.236 511.025 871.064 510.391 L 876.015 510.494 C 885.448 509.073 909.608 509.585 920.891 508.686 C 925.207 507.556 952.25 507.099 957.694 506.961 L 963.33 506.966 C 977.084 506.081 990.022 505.963 1003.82 505.833 L 1009.45 506.091 C 1019.27 505.989 1029.99 505.663 1039.74 505.991 L 1045.89 505.825 z"/>
<path transform="translate(0,0)" fill="rgb(42,94,134)" d="M 1045.89 505.825 C 1058.69 506.007 1072.28 505.98 1084.98 506.929 L 1089.85 506.761 C 1096.19 506.874 1122.65 507.164 1127.88 509.205 L 1131.81 508.399 C 1136.95 508.753 1169.2 510.173 1170.82 510.927 L 1175.53 511.037 C 1185.88 511.751 1206.04 511.876 1214.58 513.12 L 1219.53 513.018 C 1229.06 513.333 1248.05 513.504 1256.66 515.083 L 1261.61 514.951 C 1273.52 515.978 1286.56 516.124 1297.91 517.249 L 1302.55 517.375 C 1315.38 518.64 1328.02 517.465 1341.08 519.049 L 1344.24 519.026 C 1353 519.675 1375.04 521.423 1382.87 520.85 L 1384.43 521.187 L 1395.27 521.896 L 1401.95 521.952 C 1408.84 522.359 1415.73 522.716 1422.62 523.023 C 1430.27 523.15 1436.35 523.309 1443.94 524.1 L 1444.11 532.11 L 1444.92 538.693 C 1444.92 541.323 1445.27 546.375 1444.13 548.412 C 1435.81 547.754 1428.42 547.218 1420.03 547.082 C 1414.22 547.209 1405.66 546.513 1399.66 546.2 L 1390.18 545.537 C 1378.31 544.166 1355.81 543.786 1343.4 543.189 L 1246.89 538.52 C 1167.34 534.562 1085.76 529.225 1006.28 529.769 C 956.963 530.107 904.873 533.1 855.533 535.434 L 628.095 546.155 L 619.005 546.722 C 615.773 546.797 595.1 547.119 593.201 547.589 L 580.758 548.334 C 578.148 548.397 576.498 548.736 574.387 547.303 C 572.62 544.496 573.837 537.543 574.047 533.466 C 577.661 533.102 581.266 532.662 584.862 532.145 C 581.378 532.003 579.405 532.406 575.585 531.946 C 573.562 529.234 574.362 529.058 574.669 524.69 C 582.664 523.829 593.844 524.736 601.001 523.464 C 606.019 523.186 610.985 522.859 616.013 522.867 L 625.971 522.234 C 639.621 521.778 653.259 520.989 666.871 519.867 L 670.689 520.491 C 675.098 519.446 695.857 519.122 701.493 518.726 C 727.627 516.892 758.568 517.24 784.366 513.96 L 785.151 514.147 C 788.028 515.578 860.236 511.025 871.064 510.391 L 876.015 510.494 C 885.448 509.073 909.608 509.585 920.891 508.686 C 925.207 507.556 952.25 507.099 957.694 506.961 L 963.33 506.966 C 977.084 506.081 990.022 505.963 1003.82 505.833 L 1009.45 506.091 C 1019.27 505.989 1029.99 505.663 1039.74 505.991 L 1045.89 505.825 z"/>
<path transform="translate(0,0)" fill="rgb(253,254,254)" d="M 1045.89 505.825 C 1058.69 506.007 1072.28 505.98 1084.98 506.929 L 1089.85 506.761 C 1096.19 506.874 1122.65 507.164 1127.88 509.205 L 1131.81 508.399 C 1136.95 508.753 1169.2 510.173 1170.82 510.927 L 1175.53 511.037 C 1185.88 511.751 1206.04 511.876 1214.58 513.12 L 1219.53 513.018 C 1229.06 513.333 1248.05 513.504 1256.66 515.083 L 1261.61 514.951 C 1273.52 515.978 1286.56 516.124 1297.91 517.249 L 1302.55 517.375 C 1315.38 518.64 1328.02 517.465 1341.08 519.049 L 1344.24 519.026 C 1353 519.675 1375.04 521.423 1382.87 520.85 L 1384.43 521.187 L 1395.27 521.896 L 1401.95 521.952 C 1408.84 522.359 1415.73 522.716 1422.62 523.023 C 1430.27 523.15 1436.35 523.309 1443.94 524.1 L 1444.11 532.11 C 1419.39 531.697 1392.85 529.785 1368 528.667 L 1182.19 519.756 C 1133.29 517.274 1083.38 513.787 1034.47 514.022 C 884.725 514.741 734.469 527.82 584.862 532.145 C 581.378 532.003 579.405 532.406 575.585 531.946 C 573.562 529.234 574.362 529.058 574.669 524.69 C 582.664 523.829 593.844 524.736 601.001 523.464 C 606.019 523.186 610.985 522.859 616.013 522.867 L 625.971 522.234 C 639.621 521.778 653.259 520.989 666.871 519.867 L 670.689 520.491 C 675.098 519.446 695.857 519.122 701.493 518.726 C 727.627 516.892 758.568 517.24 784.366 513.96 L 785.151 514.147 C 788.028 515.578 860.236 511.025 871.064 510.391 L 876.015 510.494 C 885.448 509.073 909.608 509.585 920.891 508.686 C 925.207 507.556 952.25 507.099 957.694 506.961 L 963.33 506.966 C 977.084 506.081 990.022 505.963 1003.82 505.833 L 1009.45 506.091 C 1019.27 505.989 1029.99 505.663 1039.74 505.991 L 1045.89 505.825 z"/>
<path transform="translate(0,0)" fill="rgb(113,115,116)" d="M 1390.18 545.537 L 1399.66 546.2 C 1405.66 546.513 1414.22 547.209 1420.03 547.082 C 1428.42 547.218 1435.81 547.754 1444.13 548.412 L 1444.44 549.526 L 1440.46 550.36 C 1441.51 550.526 1444.22 550.724 1444.67 551.33 C 1447.23 554.721 1446.73 564.318 1446.78 568.793 C 1448.27 593.935 1450.44 619.666 1451.65 644.729 L 1445.97 644.909 C 1445.99 649.098 1445.74 662.956 1446.69 666.181 L 1446.9 666.94 C 1418.41 666.282 1387.93 666.782 1359.28 666.733 C 1359.27 659.481 1359.41 652.23 1359.72 644.984 L 1380.83 644.906 L 1390.18 545.537 z"/>
<path transform="translate(0,0)" fill="rgb(162,163,163)" d="M 1390.18 545.537 L 1399.66 546.2 C 1397.82 577.702 1392.6 614.619 1391.78 644.894 L 1413.83 644.854 L 1445.97 644.909 C 1445.99 649.098 1445.74 662.956 1446.69 666.181 L 1446.9 666.94 C 1418.41 666.282 1387.93 666.782 1359.28 666.733 C 1359.27 659.481 1359.41 652.23 1359.72 644.984 L 1380.83 644.906 L 1390.18 545.537 z"/>
<path transform="translate(0,0)" fill="rgb(166,220,241)" d="M 1418.33 570.956 C 1427.26 569.839 1437.7 569.393 1446.78 568.793 C 1448.27 593.935 1450.44 619.666 1451.65 644.729 L 1445.97 644.909 L 1413.83 644.854 C 1414.4 621.515 1417.44 595.13 1418.33 570.956 z"/>
<path transform="translate(0,0)" fill="rgb(166,220,241)" d="M 1420.03 547.082 C 1428.42 547.218 1435.81 547.754 1444.13 548.412 L 1444.44 549.526 L 1440.46 550.36 C 1437.17 551.037 1433.87 551.676 1430.56 552.276 C 1423.3 553.572 1420.69 554.336 1420.03 547.082 z"/>
<path transform="translate(0,0)" fill="rgb(113,115,116)" d="M 619.005 546.722 L 628.095 546.155 C 630.259 576.516 636.386 616.205 637.322 644.886 L 658.945 644.963 L 658.825 666.787 C 630.146 667.336 599.847 666.852 571.034 666.872 L 571.218 666.069 C 572.589 661.787 572.089 649.886 572.044 644.818 L 566.352 644.718 L 571.377 568.867 L 573.226 550.437 C 574.678 548.644 577.96 548.746 580.758 548.334 L 593.201 547.589 C 595.1 547.119 615.773 546.797 619.005 546.722 z"/>
<path transform="translate(0,0)" fill="rgb(162,163,163)" d="M 619.005 546.722 L 628.095 546.155 C 630.259 576.516 636.386 616.205 637.322 644.886 L 658.945 644.963 L 658.825 666.787 C 630.146 667.336 599.847 666.852 571.034 666.872 L 571.218 666.069 C 572.589 661.787 572.089 649.886 572.044 644.818 C 581.625 644.896 592.967 645.387 602.352 644.46 C 603.471 644.35 603.639 643.528 604.507 642.276 L 605.836 644.317 C 610.989 645.396 620.828 644.977 626.461 644.921 C 624.606 613.79 619.659 577.341 619.005 546.722 z"/>
<path transform="translate(0,0)" fill="rgb(166,220,241)" d="M 571.377 568.867 C 579.609 569.443 591.775 569.932 599.65 571.177 C 600.784 594.907 602.404 618.612 604.507 642.276 C 603.639 643.528 603.471 644.35 602.352 644.46 C 592.967 645.387 581.625 644.896 572.044 644.818 L 566.352 644.718 L 571.377 568.867 z"/>
<path transform="translate(0,0)" fill="rgb(166,220,241)" d="M 593.201 547.589 L 597.543 548.173 L 598.713 549.765 L 598.352 551.546 C 593.715 554.037 579.061 551.27 573.226 550.437 C 574.678 548.644 577.96 548.746 580.758 548.334 L 593.201 547.589 z"/>
<path transform="translate(0,0)" fill="rgb(253,254,254)" d="M 1434.8 180.699 C 1441.52 181.211 1449.47 182.021 1456.1 182.233 C 1456.08 189.633 1456.49 207.249 1455.8 213.865 L 1455.97 219.003 L 1455.84 227.699 L 1455.89 232.659 C 1539.44 305.334 1623.37 377.583 1707.66 449.403 L 1773.16 505.349 C 1787.02 517.141 1802.47 529.694 1815.5 542.164 L 1817.5 542.365 C 1821.11 543.78 1841.64 543.486 1847.7 543.897 L 1853.97 544.186 C 1862.47 544.579 1935.33 547.228 1938.76 549.311 C 1933.61 551.622 1930.16 553.236 1925.29 556.087 C 1919.06 561.309 1911.54 566.355 1904.84 571.074 C 1869.2 595.035 1843.24 574.154 1806.72 579.256 C 1799.36 580.284 1785.88 587.597 1778.79 591.186 C 1769.85 594.807 1764.9 596.737 1755.27 597.702 C 1733.24 598.206 1716.07 591.3 1693.35 594.511 C 1666.75 598.269 1657.98 614.156 1636.44 624.721 C 1618.92 633.312 1595.77 631.745 1581.02 648.605 C 1577.38 652.773 1573.11 657.566 1570.36 662.432 L 1568.2 665.919 C 1564.49 667.529 1459.81 666.915 1446.9 666.94 L 1446.69 666.181 C 1445.74 662.956 1445.99 649.098 1445.97 644.909 L 1451.65 644.729 C 1450.44 619.666 1448.27 593.935 1446.78 568.793 C 1446.73 564.318 1447.23 554.721 1444.67 551.33 C 1444.22 550.724 1441.51 550.526 1440.46 550.36 L 1444.44 549.526 L 1444.13 548.412 C 1445.27 546.375 1444.92 541.323 1444.92 538.693 L 1444.11 532.11 L 1443.94 524.1 C 1436.35 523.309 1430.27 523.15 1422.62 523.023 C 1424.02 474.988 1430.29 424.148 1432.17 375.438 C 1430.58 368.072 1436.85 352.748 1429.22 346.973 C 1425.68 346.897 1425.22 346.98 1421.89 348.176 C 1420.67 344.382 1423.52 337.122 1424.78 332.844 C 1425.95 329.846 1423.79 326.906 1423.5 322.708 L 1423.58 316.176 C 1421.68 315.209 1421.47 314.642 1420.17 312.863 C 1422.76 308.016 1423.15 307.978 1423.62 302.284 L 1421.53 296.182 C 1423.05 293.666 1424.12 292.322 1424.28 289.388 C 1420.99 289.205 1415.95 295.901 1413.82 298.503 C 1413.95 294.822 1414.49 291.051 1412.74 287.876 C 1419.11 282.659 1423.87 277.443 1427.89 270.286 C 1421.23 273.704 1419.19 275.613 1413.86 280.607 C 1414.11 276.222 1414.01 273.316 1413.79 268.996 C 1416.63 265.233 1419.66 265.323 1423.06 258.149 L 1422.59 257.075 C 1419.41 258.053 1416.55 260.81 1413.94 262.986 C 1414.05 258.484 1413.83 254.711 1413.57 250.249 C 1417.08 246 1419.89 246.215 1422.98 239.223 L 1422.38 238.215 C 1419.21 239.023 1416.47 241.92 1413.95 244.155 L 1413.82 229.287 C 1420.58 223.938 1422.98 221.78 1428.19 214.964 C 1422.29 217.715 1419.28 220.113 1414.04 223.966 L 1413.96 198.358 C 1420.83 193.001 1428.14 186.43 1434.8 180.699 z"/>
<path transform="translate(0,0)" fill="rgb(166,220,241)" d="M 1479.45 549.933 L 1755.04 563.573 L 1755.27 597.702 C 1733.24 598.206 1716.07 591.3 1693.35 594.511 C 1666.75 598.269 1657.98 614.156 1636.44 624.721 C 1618.92 633.312 1595.77 631.745 1581.02 648.605 C 1577.38 652.773 1573.11 657.566 1570.36 662.432 L 1568.2 665.919 C 1564.49 667.529 1459.81 666.915 1446.9 666.94 L 1446.69 666.181 C 1445.74 662.956 1445.99 649.098 1445.97 644.909 L 1451.65 644.729 C 1455.1 644.896 1459.65 645.483 1462.71 644.187 C 1464.8 640.535 1464.09 639.414 1464.07 634.878 C 1464.63 638.261 1465.16 641.521 1465.59 644.924 C 1469.73 644.997 1483.53 645.634 1486.8 643.89 L 1487.51 641.338 L 1479.45 549.933 z"/>
<path transform="translate(0,0)" fill="rgb(216,218,218)" d="M 1464.07 634.878 C 1464.63 638.261 1465.16 641.521 1465.59 644.924 C 1469.73 644.997 1483.53 645.634 1486.8 643.89 L 1487.51 641.338 L 1488.63 644.046 C 1493.08 645.773 1509.36 644.747 1515.48 645.037 C 1515.47 651.664 1515.62 659.243 1515.29 665.781 C 1494.69 665.869 1466.54 665.062 1446.69 666.181 C 1445.74 662.956 1445.99 649.098 1445.97 644.909 L 1451.65 644.729 C 1455.1 644.896 1459.65 645.483 1462.71 644.187 C 1464.8 640.535 1464.09 639.414 1464.07 634.878 z"/>
<path transform="translate(0,0)" fill="rgb(42,94,134)" d="M 1478.25 533.954 L 1805.23 549.964 C 1845.13 551.868 1885.41 554.627 1925.29 556.087 C 1919.06 561.309 1911.54 566.355 1904.84 571.074 C 1869.2 595.035 1843.24 574.154 1806.72 579.256 C 1799.36 580.284 1785.88 587.597 1778.79 591.186 C 1769.85 594.807 1764.9 596.737 1755.27 597.702 L 1755.04 563.573 L 1479.45 549.933 C 1479.08 544.605 1478.68 539.278 1478.25 533.954 z"/>
<path transform="translate(0,0)" fill="rgb(166,220,241)" d="M 1778.73 564.683 C 1820.77 566.565 1862.81 568.695 1904.84 571.074 C 1869.2 595.035 1843.24 574.154 1806.72 579.256 C 1799.36 580.284 1785.88 587.597 1778.79 591.186 L 1778.73 564.683 z"/>
<path transform="translate(0,0)" fill="rgb(166,220,241)" d="M 1455.89 232.659 C 1539.44 305.334 1623.37 377.583 1707.66 449.403 L 1773.16 505.349 C 1787.02 517.141 1802.47 529.694 1815.5 542.164 C 1811.56 542.168 1781.4 541.193 1779.01 540.281 L 1778.13 540.033 L 1585.46 365.848 C 1542.94 327.305 1497.68 286.851 1456.05 247.485 L 1455.85 242.572 C 1456.18 240.939 1455.93 234.67 1455.89 232.659 z"/>
<path transform="translate(0,0)" fill="rgb(42,94,134)" d="M 1455.85 242.572 C 1478.53 261.542 1503 285.151 1525.12 305.371 L 1657.56 426.054 L 1743.04 503.43 C 1750.78 510.428 1776.43 532.521 1781.29 538.54 L 1781.12 539.768 L 1779.01 540.281 L 1778.13 540.033 L 1585.46 365.848 C 1542.94 327.305 1497.68 286.851 1456.05 247.485 L 1455.85 242.572 z"/>
<path transform="translate(0,0)" fill="rgb(166,220,241)" d="M 1456.05 247.485 C 1497.68 286.851 1542.94 327.305 1585.46 365.848 L 1778.13 540.033 C 1767.35 540.163 1756.74 538.707 1746.1 539.169 L 1740.59 538.423 L 1455.99 261.781 L 1455.72 256.587 C 1456.02 255.369 1456.02 249.133 1456.05 247.485 z"/>
<path transform="translate(0,0)" fill="rgb(42,94,134)" d="M 1455.72 256.587 C 1462.35 261.862 1471.29 271.215 1477.63 277.432 L 1514.81 313.827 L 1637.31 433.587 L 1711.8 505.347 C 1717.52 510.822 1742.22 533.79 1746.1 539.169 L 1740.59 538.423 L 1455.99 261.781 L 1455.72 256.587 z"/>
<path transform="translate(0,0)" fill="rgb(166,220,241)" d="M 1455.99 261.781 L 1740.59 538.423 C 1735.48 538.348 1710.24 538.184 1706.87 537.335 L 1704.47 537.021 C 1693.49 524.402 1679.87 510.91 1668.15 498.789 C 1647.86 477.902 1627.67 456.905 1607.61 435.799 C 1558.93 384.65 1506.38 327.262 1456.57 277.919 C 1456.27 277.022 1455.83 273.021 1455.67 271.839 C 1455.96 269.511 1455.93 264.337 1455.99 261.781 z"/>
<path transform="translate(0,0)" fill="rgb(42,94,134)" d="M 1455.67 271.839 C 1470.23 284.337 1707.32 533.506 1708.46 536.34 L 1706.87 537.335 L 1704.47 537.021 C 1693.49 524.402 1679.87 510.91 1668.15 498.789 C 1647.86 477.902 1627.67 456.905 1607.61 435.799 C 1558.93 384.65 1506.38 327.262 1456.57 277.919 C 1456.27 277.022 1455.83 273.021 1455.67 271.839 z"/>
<path transform="translate(0,0)" fill="rgb(166,220,241)" d="M 1456.57 277.919 C 1506.38 327.262 1558.93 384.65 1607.61 435.799 C 1627.67 456.905 1647.86 477.902 1668.15 498.789 C 1679.87 510.91 1693.49 524.402 1704.47 537.021 L 1669.35 535.368 L 1664.37 534.837 C 1596.17 454.311 1527.37 374.279 1458.01 294.748 L 1457.75 293.8 C 1456.73 291.764 1456.7 280.986 1456.57 277.919 z"/>
<path transform="translate(0,0)" fill="rgb(42,94,134)" d="M 1457.75 293.8 L 1458.04 290.922 C 1461.67 291.213 1479.29 312.969 1483 317.206 C 1499.43 336.04 1515.76 354.96 1531.99 373.965 L 1660.24 523.838 C 1663.43 527.558 1666.47 531.405 1669.35 535.368 L 1664.37 534.837 C 1596.17 454.311 1527.37 374.279 1458.01 294.748 L 1457.75 293.8 z"/>
<path transform="translate(0,0)" fill="rgb(162,163,163)" d="M 1413.96 198.358 C 1420.83 193.001 1428.14 186.43 1434.8 180.699 C 1435.07 230.16 1433.83 276.313 1438.79 325.676 C 1443.41 371.643 1446.16 418.299 1450.27 464.375 C 1452.26 486.675 1455.69 514.908 1456.09 537.056 C 1452.15 537.757 1448.9 538.273 1444.92 538.693 L 1444.11 532.11 L 1443.94 524.1 C 1436.35 523.309 1430.27 523.15 1422.62 523.023 C 1424.02 474.988 1430.29 424.148 1432.17 375.438 C 1430.58 368.072 1436.85 352.748 1429.22 346.973 C 1425.68 346.897 1425.22 346.98 1421.89 348.176 C 1420.67 344.382 1423.52 337.122 1424.78 332.844 C 1425.95 329.846 1423.79 326.906 1423.5 322.708 L 1423.58 316.176 C 1421.68 315.209 1421.47 314.642 1420.17 312.863 C 1422.76 308.016 1423.15 307.978 1423.62 302.284 L 1421.53 296.182 C 1423.05 293.666 1424.12 292.322 1424.28 289.388 C 1420.99 289.205 1415.95 295.901 1413.82 298.503 C 1413.95 294.822 1414.49 291.051 1412.74 287.876 C 1419.11 282.659 1423.87 277.443 1427.89 270.286 C 1421.23 273.704 1419.19 275.613 1413.86 280.607 C 1414.11 276.222 1414.01 273.316 1413.79 268.996 C 1416.63 265.233 1419.66 265.323 1423.06 258.149 L 1422.59 257.075 C 1419.41 258.053 1416.55 260.81 1413.94 262.986 C 1414.05 258.484 1413.83 254.711 1413.57 250.249 C 1417.08 246 1419.89 246.215 1422.98 239.223 L 1422.38 238.215 C 1419.21 239.023 1416.47 241.92 1413.95 244.155 L 1413.82 229.287 C 1420.58 223.938 1422.98 221.78 1428.19 214.964 C 1422.29 217.715 1419.28 220.113 1414.04 223.966 L 1413.96 198.358 z"/>
<path transform="translate(0,0)" fill="rgb(166,220,241)" d="M 1432.17 375.438 C 1437.01 411.409 1438.41 443.528 1440.66 479.78 C 1441.14 487.512 1442.71 518.422 1443.94 524.1 C 1436.35 523.309 1430.27 523.15 1422.62 523.023 C 1424.02 474.988 1430.29 424.148 1432.17 375.438 z"/>
<path transform="translate(0,0)" fill="rgb(166,220,241)" d="M 1458.01 294.748 C 1527.37 374.279 1596.17 454.311 1664.37 534.837 C 1658.12 534.546 1632.43 534.631 1629.2 533.24 L 1628.3 533.001 C 1591.64 485.307 1555.32 437.355 1519.35 389.145 C 1501.79 365.983 1477.79 332.11 1459.56 311.4 L 1458.38 305.812 C 1458.07 304.689 1458.04 296.469 1458.01 294.748 z"/>
<path transform="translate(0,0)" fill="rgb(42,94,134)" d="M 1458.38 305.812 L 1459.7 304.707 C 1463.83 308.599 1487.23 340.292 1492.73 347.475 L 1587.26 472.773 C 1591.79 478.75 1630.8 528.481 1632.13 532.318 C 1630.79 533.116 1630.84 533.178 1629.2 533.24 L 1628.3 533.001 C 1591.64 485.307 1555.32 437.355 1519.35 389.145 C 1501.79 365.983 1477.79 332.11 1459.56 311.4 L 1458.38 305.812 z"/>
<path transform="translate(0,0)" fill="rgb(166,220,241)" d="M 1459.56 311.4 C 1477.79 332.11 1501.79 365.983 1519.35 389.145 C 1555.32 437.355 1591.64 485.307 1628.3 533.001 C 1622.19 532.862 1595.28 532.532 1591.5 531.472 L 1589.34 530.934 C 1571.13 501.554 1552.26 472.584 1533.82 443.351 C 1509.86 405.394 1485.94 366.117 1461.08 328.777 L 1460.08 320.029 L 1459.56 311.4 z"/>
<path transform="translate(0,0)" fill="rgb(42,94,134)" d="M 1460.08 320.029 C 1465.07 325.695 1481.12 352.32 1486.06 360.171 C 1504.61 389.23 1522.96 418.418 1541.1 447.734 L 1579.64 508.187 C 1582.64 512.921 1591.81 526.253 1593.23 530.41 L 1591.5 531.472 L 1589.34 530.934 C 1571.13 501.554 1552.26 472.584 1533.82 443.351 C 1509.86 405.394 1485.94 366.117 1461.08 328.777 L 1460.08 320.029 z"/>
<path transform="translate(0,0)" fill="rgb(166,220,241)" d="M 1461.08 328.777 C 1485.94 366.117 1509.86 405.394 1533.82 443.351 C 1552.26 472.584 1571.13 501.554 1589.34 530.934 C 1584.53 530.996 1555.16 530.379 1552.02 529.21 L 1551.28 529.025 C 1521.14 470.51 1493.22 409.124 1463.11 350.272 C 1461.86 346.962 1461.93 343.302 1461.78 339.746 C 1461.11 337.462 1461.15 331.441 1461.08 328.777 z"/>
<path transform="translate(0,0)" fill="rgb(42,94,134)" d="M 1461.78 339.746 C 1465.32 344.271 1554.23 525.281 1554.74 527.862 C 1553.76 529.204 1554.14 528.777 1552.02 529.21 L 1551.28 529.025 C 1521.14 470.51 1493.22 409.124 1463.11 350.272 C 1461.86 346.962 1461.93 343.302 1461.78 339.746 z"/>
<path transform="translate(0,0)" fill="rgb(166,220,241)" d="M 1463.11 350.272 C 1493.22 409.124 1521.14 470.51 1551.28 529.025 C 1544.96 529.262 1518.99 528.715 1514.02 527.249 L 1513.3 527.022 C 1507.34 512.626 1499.89 488.184 1494.87 473.064 L 1466.15 386.636 C 1465.4 383.65 1464.87 378.028 1464.47 374.785 C 1463.54 373.256 1463.23 353.847 1463.11 350.272 z"/>
<path transform="translate(0,0)" fill="rgb(42,94,134)" d="M 1464.47 374.785 L 1465.49 372.797 C 1468.28 378.185 1515.97 523.151 1516.17 526.292 L 1514.02 527.249 L 1513.3 527.022 C 1507.34 512.626 1499.89 488.184 1494.87 473.064 L 1466.15 386.636 C 1465.4 383.65 1464.87 378.028 1464.47 374.785 z"/>
<path transform="translate(0,0)" fill="rgb(166,220,241)" d="M 1466.15 386.636 L 1494.87 473.064 C 1499.89 488.184 1507.34 512.626 1513.3 527.022 L 1477.36 525.603 C 1475.96 488.293 1470.04 449.598 1467.72 412.19 C 1467.18 403.506 1466.06 395.453 1466.15 386.636 z"/>
<path transform="translate(0,0)" fill="rgb(162,163,163)" d="M 1456.09 537.056 C 1458.68 569.44 1461.8 602.534 1464.07 634.878 C 1464.09 639.414 1464.8 640.535 1462.71 644.187 C 1459.65 645.483 1455.1 644.896 1451.65 644.729 C 1450.44 619.666 1448.27 593.935 1446.78 568.793 C 1446.73 564.318 1447.23 554.721 1444.67 551.33 C 1444.22 550.724 1441.51 550.526 1440.46 550.36 L 1444.44 549.526 L 1444.13 548.412 C 1445.27 546.375 1444.92 541.323 1444.92 538.693 C 1448.9 538.273 1452.15 537.757 1456.09 537.056 z"/>
<path transform="translate(0,0)" fill="rgb(166,220,241)" d="M 603.734 218.036 L 1003.82 505.833 C 990.022 505.963 977.084 506.081 963.33 506.966 L 957.694 506.961 C 952.25 507.099 925.207 507.556 920.891 508.686 C 909.608 509.585 885.448 509.073 876.015 510.494 L 871.064 510.391 C 860.236 511.025 788.028 515.578 785.151 514.147 L 784.366 513.96 C 758.568 517.24 727.627 516.892 701.493 518.726 C 695.857 519.122 675.098 519.446 670.689 520.491 L 666.871 519.867 C 653.259 520.989 639.621 521.778 625.971 522.234 L 616.179 417.494 C 615.628 411.769 610.948 377.075 612.414 374.305 C 608.94 362.912 604.107 352.14 599.891 341.111 C 598.912 338.962 593.371 323.847 595.081 321.942 C 600.685 315.7 594.595 316.491 595.367 308.241 L 597.86 306.12 C 595.578 302.397 594.949 301.585 594.814 297.294 L 597.287 293.066 C 595.833 291.163 594.416 289.743 594.432 287.341 C 598.589 286.516 602.828 293.083 605.128 296.184 C 604.265 291.525 603.928 289.986 604.156 285.268 C 602.894 283.974 601.651 282.663 600.426 281.334 C 598.339 279.05 596.085 276.436 596.22 273.294 C 599.144 273.849 601.895 277.171 604.133 279.39 L 604.445 268.014 C 601.599 265.355 595.322 260.299 595.613 256.295 C 598.729 256.584 601.756 259.877 604.243 262.058 C 604.12 257.968 603.705 254.023 605.082 250.177 C 602.175 247.815 594.921 242.903 595.709 238.976 C 598.765 239.06 601.77 242.098 604.282 244.138 C 604.129 240.562 604.224 236.741 604.247 233.144 C 601.633 231.045 594.78 226.276 595.804 222.773 C 598.796 222.917 601.719 225.803 604.184 227.771 L 603.734 218.036 z"/>
<path transform="translate(0,0)" fill="rgb(166,220,241)" d="M 597.287 293.066 C 595.833 291.163 594.416 289.743 594.432 287.341 C 598.589 286.516 602.828 293.083 605.128 296.184 C 622.383 315.679 786.676 507.578 788.165 513.345 C 786.755 514.006 786.791 514.062 785.151 514.147 L 784.366 513.96 C 758.568 517.24 727.627 516.892 701.493 518.726 C 695.857 519.122 675.098 519.446 670.689 520.491 L 666.871 519.867 C 653.259 520.989 639.621 521.778 625.971 522.234 L 616.179 417.494 C 615.628 411.769 610.948 377.075 612.414 374.305 C 608.94 362.912 604.107 352.14 599.891 341.111 C 598.912 338.962 593.371 323.847 595.081 321.942 C 600.685 315.7 594.595 316.491 595.367 308.241 L 597.86 306.12 C 595.578 302.397 594.949 301.585 594.814 297.294 L 597.287 293.066 z"/>
<path transform="translate(0,0)" fill="rgb(166,220,241)" d="M 625.971 522.234 L 616.179 417.494 C 615.628 411.769 610.948 377.075 612.414 374.305 C 631.092 422.555 648.053 471.53 666.871 519.867 C 653.259 520.989 639.621 521.778 625.971 522.234 z"/>
<path transform="translate(0,0)" fill="rgb(42,94,134)" d="M 597.86 306.12 L 604.926 315.907 L 602.825 318.258 L 685.22 474.818 C 689.176 482.414 706.415 512.383 706.058 517.78 L 705.133 518.477 C 699.753 516.137 624.249 363 611.943 345.284 C 611.073 344.031 609.799 341.965 608.223 342.526 C 607.586 354.368 619.685 381.856 624.177 394.092 C 635.358 424.801 646.727 455.442 658.281 486.012 C 661.374 494.207 669.137 513.38 670.689 520.491 L 666.871 519.867 C 648.053 471.53 631.092 422.555 612.414 374.305 C 608.94 362.912 604.107 352.14 599.891 341.111 C 598.912 338.962 593.371 323.847 595.081 321.942 C 600.685 315.7 594.595 316.491 595.367 308.241 L 597.86 306.12 z"/>
<path transform="translate(0,0)" fill="rgb(146,160,171)" d="M 597.86 306.12 L 604.926 315.907 L 602.825 318.258 C 600.445 314.545 598.593 311.302 595.367 308.241 L 597.86 306.12 z"/>
<path transform="translate(0,0)" fill="rgb(42,94,134)" d="M 597.287 293.066 C 595.833 291.163 594.416 289.743 594.432 287.341 C 598.589 286.516 602.828 293.083 605.128 296.184 C 622.383 315.679 786.676 507.578 788.165 513.345 C 786.755 514.006 786.791 514.062 785.151 514.147 L 784.366 513.96 C 779.532 507.156 769.618 495.973 763.951 489.197 L 722.951 440.426 C 684.449 393.927 645.251 348.008 605.372 302.685 C 603.908 300.509 599.201 295.304 597.287 293.066 z"/>
<path transform="translate(0,0)" fill="rgb(42,94,134)" d="M 597.287 293.066 C 599.201 295.304 603.908 300.509 605.372 302.685 L 604.538 308.604 C 637.456 354.868 669.937 401.442 701.975 448.319 C 713.17 464.335 724.175 480.483 734.988 496.76 C 737.977 501.186 747.363 511.791 747.31 516.066 C 745.831 516.207 744.105 516.179 743.102 514.777 C 732.047 499.334 719.611 480.623 709.034 465.298 C 674.731 415.224 640.027 365.425 604.926 315.907 L 597.86 306.12 C 595.578 302.397 594.949 301.585 594.814 297.294 L 597.287 293.066 z"/>
<path transform="translate(0,0)" fill="rgb(146,160,171)" d="M 597.287 293.066 C 599.201 295.304 603.908 300.509 605.372 302.685 L 604.538 308.604 C 601.32 305.138 598.985 299.784 594.814 297.294 L 597.287 293.066 z"/>
<path transform="translate(0,0)" fill="rgb(166,220,241)" d="M 604.445 268.014 C 627.429 287.5 651.758 310.583 674.308 331.034 L 795.826 441.522 L 844.601 486.445 C 851.877 493.162 863.808 504.821 871.064 510.391 C 860.236 511.025 788.028 515.578 785.151 514.147 C 786.791 514.062 786.755 514.006 788.165 513.345 C 786.676 507.578 622.383 315.679 605.128 296.184 C 604.265 291.525 603.928 289.986 604.156 285.268 C 602.894 283.974 601.651 282.663 600.426 281.334 C 598.339 279.05 596.085 276.436 596.22 273.294 C 599.144 273.849 601.895 277.171 604.133 279.39 L 604.445 268.014 z"/>
<path transform="translate(0,0)" fill="rgb(42,94,134)" d="M 604.156 285.268 C 602.894 283.974 601.651 282.663 600.426 281.334 C 598.339 279.05 596.085 276.436 596.22 273.294 C 599.144 273.849 601.895 277.171 604.133 279.39 C 629.101 303.845 830.318 508.163 830.828 511.824 C 824.089 512.954 812.842 497.728 807.891 492.546 L 772.831 456.487 L 674.148 355.038 C 652.357 332.685 627.136 306.349 604.156 285.268 z"/>
<path transform="translate(0,0)" fill="rgb(166,220,241)" d="M 605.082 250.177 L 815.701 425.136 L 877.879 476.98 C 889.555 486.781 901.355 497.003 913.382 506.372 C 915.969 508.388 917.683 508.544 920.891 508.686 C 909.608 509.585 885.448 509.073 876.015 510.494 L 871.064 510.391 C 863.808 504.821 851.877 493.162 844.601 486.445 L 795.826 441.522 L 674.308 331.034 C 651.758 310.583 627.429 287.5 604.445 268.014 C 601.599 265.355 595.322 260.299 595.613 256.295 C 598.729 256.584 601.756 259.877 604.243 262.058 C 604.12 257.968 603.705 254.023 605.082 250.177 z"/>
<path transform="translate(0,0)" fill="rgb(42,94,134)" d="M 604.445 268.014 C 601.599 265.355 595.322 260.299 595.613 256.295 C 598.729 256.584 601.756 259.877 604.243 262.058 L 767.239 410.197 L 838.575 475.569 C 850.049 486.166 865.297 499.512 876.015 510.494 L 871.064 510.391 C 863.808 504.821 851.877 493.162 844.601 486.445 L 795.826 441.522 L 674.308 331.034 C 651.758 310.583 627.429 287.5 604.445 268.014 z"/>
<path transform="translate(0,0)" fill="rgb(166,220,241)" d="M 604.247 233.144 C 634.365 255.21 664.951 280.444 694.612 303.454 L 879.577 446.354 C 903.427 464.707 934.242 490.418 957.694 506.961 C 952.25 507.099 925.207 507.556 920.891 508.686 C 917.683 508.544 915.969 508.388 913.382 506.372 C 901.355 497.003 889.555 486.781 877.879 476.98 L 815.701 425.136 L 605.082 250.177 C 602.175 247.815 594.921 242.903 595.709 238.976 C 598.765 239.06 601.77 242.098 604.282 244.138 C 604.129 240.562 604.224 236.741 604.247 233.144 z"/>
<path transform="translate(0,0)" fill="rgb(42,94,134)" d="M 605.082 250.177 C 602.175 247.815 594.921 242.903 595.709 238.976 C 598.765 239.06 601.77 242.098 604.282 244.138 L 828.466 430.802 L 890.589 482.448 C 896.429 487.315 916.821 503.852 920.891 508.686 C 917.683 508.544 915.969 508.388 913.382 506.372 C 901.355 497.003 889.555 486.781 877.879 476.98 L 815.701 425.136 L 605.082 250.177 z"/>
<path transform="translate(0,0)" fill="rgb(42,94,134)" d="M 604.247 233.144 C 601.633 231.045 594.78 226.276 595.804 222.773 C 598.796 222.917 601.719 225.803 604.184 227.771 L 843.4 413.6 L 923.182 475.144 C 934.121 483.621 954.05 498.167 963.33 506.966 L 957.694 506.961 C 934.242 490.418 903.427 464.707 879.577 446.354 L 694.612 303.454 C 664.951 280.444 634.365 255.21 604.247 233.144 z"/>
<path transform="translate(0,0)" fill="rgb(166,220,241)" d="M 1413.79 268.996 C 1414.01 273.316 1414.11 276.222 1413.86 280.607 C 1419.19 275.613 1421.23 273.704 1427.89 270.286 C 1423.87 277.443 1419.11 282.659 1412.74 287.876 C 1414.49 291.051 1413.95 294.822 1413.82 298.503 C 1415.95 295.901 1420.99 289.205 1424.28 289.388 C 1424.12 292.322 1423.05 293.666 1421.53 296.182 L 1423.62 302.284 C 1423.15 307.978 1422.76 308.016 1420.17 312.863 C 1421.47 314.642 1421.68 315.209 1423.58 316.176 L 1423.5 322.708 C 1423.79 326.906 1425.95 329.846 1424.78 332.844 C 1423.52 337.122 1420.67 344.382 1421.89 348.176 C 1425.22 346.98 1425.68 346.897 1429.22 346.973 C 1436.85 352.748 1430.58 368.072 1432.17 375.438 C 1430.29 424.148 1424.02 474.988 1422.62 523.023 C 1415.73 522.716 1408.84 522.359 1401.95 521.952 L 1395.27 521.896 L 1384.43 521.187 L 1382.87 520.85 C 1375.04 521.423 1353 519.675 1344.24 519.026 L 1341.08 519.049 C 1328.02 517.465 1315.38 518.64 1302.55 517.375 L 1297.91 517.249 C 1286.56 516.124 1273.52 515.978 1261.61 514.951 L 1256.66 515.083 C 1248.05 513.504 1229.06 513.333 1219.53 513.018 L 1214.58 513.12 C 1206.04 511.876 1185.88 511.751 1175.53 511.037 L 1170.82 510.927 C 1169.2 510.173 1136.95 508.753 1131.81 508.399 L 1299.29 366.987 C 1336.12 335.563 1376.66 298.938 1413.79 268.996 z"/>
<path transform="translate(0,0)" fill="rgb(166,220,241)" d="M 1408.56 347.723 C 1409.44 344.593 1421.06 326.509 1423.5 322.708 C 1423.79 326.906 1425.95 329.846 1424.78 332.844 C 1423.52 337.122 1420.67 344.382 1421.89 348.176 C 1425.22 346.98 1425.68 346.897 1429.22 346.973 C 1436.85 352.748 1430.58 368.072 1432.17 375.438 C 1430.29 424.148 1424.02 474.988 1422.62 523.023 C 1415.73 522.716 1408.84 522.359 1401.95 521.952 L 1395.27 521.896 L 1384.43 521.187 L 1382.87 520.85 C 1375.04 521.423 1353 519.675 1344.24 519.026 L 1341.08 519.049 C 1328.02 517.465 1315.38 518.64 1302.55 517.375 C 1339.04 460.201 1373.87 406.268 1408.56 347.723 z"/>
<path transform="translate(0,0)" fill="rgb(113,115,116)" d="M 1421.89 348.176 C 1425.22 346.98 1425.68 346.897 1429.22 346.973 C 1436.85 352.748 1430.58 368.072 1432.17 375.438 C 1430.29 424.148 1424.02 474.988 1422.62 523.023 C 1415.73 522.716 1408.84 522.359 1401.95 521.952 L 1395.27 521.896 L 1384.43 521.187 L 1382.87 520.85 C 1383.48 514.6 1387.11 500.966 1388.71 494.176 C 1392.75 477.564 1396.49 460.882 1399.94 444.138 C 1399.5 432.766 1405.63 391.627 1403.6 387.161 C 1404.42 383.829 1411.82 367.469 1414.22 364.407 L 1415.05 364.836 C 1414.82 369.451 1414.61 374.067 1414.42 378.685 C 1415.18 373.55 1419.82 352.202 1421.89 348.176 z"/>
<path transform="translate(0,0)" fill="rgb(42,94,134)" d="M 1421.89 348.176 L 1424.14 348.808 C 1425.82 355.414 1410.68 414.525 1408.54 426.6 C 1409.11 433.971 1408.32 441.391 1407.8 448.746 C 1406.05 473.159 1403.49 497.525 1401.95 521.952 L 1395.27 521.896 L 1384.43 521.187 L 1382.87 520.85 C 1383.48 514.6 1387.11 500.966 1388.71 494.176 C 1392.75 477.564 1396.49 460.882 1399.94 444.138 C 1399.5 432.766 1405.63 391.627 1403.6 387.161 C 1404.42 383.829 1411.82 367.469 1414.22 364.407 L 1415.05 364.836 C 1414.82 369.451 1414.61 374.067 1414.42 378.685 C 1415.18 373.55 1419.82 352.202 1421.89 348.176 z"/>
<path transform="translate(0,0)" fill="rgb(162,163,163)" d="M 1408.54 426.6 C 1409.11 433.971 1408.32 441.391 1407.8 448.746 C 1406.05 473.159 1403.49 497.525 1401.95 521.952 L 1395.27 521.896 L 1384.43 521.187 C 1389.57 517.37 1392.62 494.422 1394.4 487.102 C 1396.85 471.712 1404.62 442.61 1408.54 426.6 z"/>
<path transform="translate(0,0)" fill="rgb(166,220,241)" d="M 1394.4 487.102 C 1397.45 492.588 1391.69 513.429 1392.94 520.375 C 1393.85 520.966 1394.62 521.473 1395.27 521.896 L 1384.43 521.187 C 1389.57 517.37 1392.62 494.422 1394.4 487.102 z"/>
<path transform="translate(0,0)" fill="rgb(146,160,171)" d="M 1403.6 387.161 C 1404.42 383.829 1411.82 367.469 1414.22 364.407 L 1415.05 364.836 C 1414.82 369.451 1414.61 374.067 1414.42 378.685 C 1411.2 395.693 1405.11 428.211 1399.94 444.138 C 1399.5 432.766 1405.63 391.627 1403.6 387.161 z"/>
<path transform="translate(0,0)" fill="rgb(166,220,241)" d="M 1403.6 387.161 C 1405.63 391.627 1399.5 432.766 1399.94 444.138 C 1396.49 460.882 1392.75 477.564 1388.71 494.176 C 1387.11 500.966 1383.48 514.6 1382.87 520.85 C 1375.04 521.423 1353 519.675 1344.24 519.026 C 1364.44 477.654 1384.92 429.651 1403.6 387.161 z"/>
<path transform="translate(0,0)" fill="rgb(42,94,134)" d="M 1408.56 347.723 C 1409.44 344.593 1421.06 326.509 1423.5 322.708 C 1423.79 326.906 1425.95 329.846 1424.78 332.844 C 1423.52 337.122 1420.67 344.382 1421.89 348.176 C 1419.82 352.202 1415.18 373.55 1414.42 378.685 C 1414.61 374.067 1414.82 369.451 1415.05 364.836 L 1414.22 364.407 C 1411.82 367.469 1404.42 383.829 1403.6 387.161 C 1384.92 429.651 1364.44 477.654 1344.24 519.026 L 1341.08 519.049 C 1341.39 516.385 1344.85 509.108 1346.03 506.354 C 1366.08 459.691 1389.39 413.518 1407.66 366.159 C 1407.99 360.487 1409.28 353.176 1408.56 347.723 z"/>
<path transform="translate(0,0)" fill="rgb(146,160,171)" d="M 1408.56 347.723 C 1409.44 344.593 1421.06 326.509 1423.5 322.708 C 1423.79 326.906 1425.95 329.846 1424.78 332.844 L 1423.52 330.94 C 1419.99 334.116 1411.8 359.222 1407.66 366.159 C 1407.99 360.487 1409.28 353.176 1408.56 347.723 z"/>
<path transform="translate(0,0)" fill="rgb(166,220,241)" d="M 1413.82 298.503 C 1415.95 295.901 1420.99 289.205 1424.28 289.388 C 1424.12 292.322 1423.05 293.666 1421.53 296.182 L 1423.62 302.284 C 1423.15 307.978 1422.76 308.016 1420.17 312.863 C 1421.47 314.642 1421.68 315.209 1423.58 316.176 L 1423.5 322.708 C 1421.06 326.509 1409.44 344.593 1408.56 347.723 C 1373.87 406.268 1339.04 460.201 1302.55 517.375 L 1297.91 517.249 C 1286.56 516.124 1273.52 515.978 1261.61 514.951 L 1256.66 515.083 C 1248.05 513.504 1229.06 513.333 1219.53 513.018 L 1214.58 513.12 C 1221.98 504.115 1233.63 492.46 1241.79 483.875 L 1286.95 436.162 C 1329.74 390.745 1372.04 344.856 1413.82 298.503 z"/>
<path transform="translate(0,0)" fill="rgb(166,220,241)" d="M 1411.44 324.016 C 1412.52 322.104 1418.57 314.502 1420.17 312.863 C 1421.47 314.642 1421.68 315.209 1423.58 316.176 L 1423.5 322.708 C 1421.06 326.509 1409.44 344.593 1408.56 347.723 C 1373.87 406.268 1339.04 460.201 1302.55 517.375 L 1297.91 517.249 C 1286.56 516.124 1273.52 515.978 1261.61 514.951 C 1289.88 477.953 1320.92 442.196 1349.48 405.272 C 1370.34 378.307 1390.53 350.844 1411.44 324.016 z"/>
<path transform="translate(0,0)" fill="rgb(42,94,134)" d="M 1411.44 324.016 C 1412.52 322.104 1418.57 314.502 1420.17 312.863 C 1421.47 314.642 1421.68 315.209 1423.58 316.176 L 1423.5 322.708 C 1421.06 326.509 1409.44 344.593 1408.56 347.723 C 1373.87 406.268 1339.04 460.201 1302.55 517.375 L 1297.91 517.249 C 1335.97 456.488 1379.32 394.447 1412.95 331.193 L 1411.44 324.016 z"/>
<path transform="translate(0,0)" fill="rgb(146,160,171)" d="M 1411.44 324.016 C 1412.52 322.104 1418.57 314.502 1420.17 312.863 C 1421.47 314.642 1421.68 315.209 1423.58 316.176 C 1419.26 320.755 1416.3 325.874 1412.95 331.193 L 1411.44 324.016 z"/>
<path transform="translate(0,0)" fill="rgb(42,94,134)" d="M 1413.82 298.503 C 1415.95 295.901 1420.99 289.205 1424.28 289.388 C 1424.12 292.322 1423.05 293.666 1421.53 296.182 L 1413.35 305.116 C 1391.26 328.233 1369.09 353.492 1347.33 377.129 C 1304.99 422.667 1262.39 467.964 1219.53 513.018 L 1214.58 513.12 C 1221.98 504.115 1233.63 492.46 1241.79 483.875 L 1286.95 436.162 C 1329.74 390.745 1372.04 344.856 1413.82 298.503 z"/>
<path transform="translate(0,0)" fill="rgb(42,94,134)" d="M 1421.53 296.182 L 1423.62 302.284 C 1423.15 307.978 1422.76 308.016 1420.17 312.863 C 1418.57 314.502 1412.52 322.104 1411.44 324.016 C 1390.53 350.844 1370.34 378.307 1349.48 405.272 C 1320.92 442.196 1289.88 477.953 1261.61 514.951 L 1256.66 515.083 C 1300.79 457.52 1349.17 402.628 1391.74 343.701 C 1399.25 333.311 1407.1 323.594 1414.15 312.798 L 1413.35 305.116 L 1421.53 296.182 z"/>
<path transform="translate(0,0)" fill="rgb(146,160,171)" d="M 1421.53 296.182 L 1423.62 302.284 C 1419.36 305.854 1417.52 308.462 1414.15 312.798 L 1413.35 305.116 L 1421.53 296.182 z"/>
<path transform="translate(0,0)" fill="rgb(166,220,241)" d="M 1412.74 287.876 C 1414.49 291.051 1413.95 294.822 1413.82 298.503 C 1372.04 344.856 1329.74 390.745 1286.95 436.162 L 1241.79 483.875 C 1233.63 492.46 1221.98 504.115 1214.58 513.12 C 1206.04 511.876 1185.88 511.751 1175.53 511.037 C 1182.53 505.376 1194.05 493.818 1200.95 487.368 L 1246.14 445.53 C 1302.33 393.678 1357.87 341.122 1412.74 287.876 z"/>
<path transform="translate(0,0)" fill="rgb(42,94,134)" d="M 1413.86 280.607 C 1419.19 275.613 1421.23 273.704 1427.89 270.286 C 1423.87 277.443 1419.11 282.659 1412.74 287.876 C 1357.87 341.122 1302.33 393.678 1246.14 445.53 L 1200.95 487.368 C 1194.05 493.818 1182.53 505.376 1175.53 511.037 L 1170.82 510.927 C 1173.91 506.518 1218.23 466.387 1224.8 460.294 C 1268.8 419.568 1312.5 378.515 1355.9 337.137 C 1371.71 322.006 1400.89 295.783 1413.86 280.607 z"/>
<path transform="translate(0,0)" fill="rgb(166,220,241)" d="M 1413.82 229.287 L 1413.95 244.155 C 1416.47 241.92 1419.21 239.023 1422.38 238.215 L 1422.98 239.223 C 1419.89 246.215 1417.08 246 1413.57 250.249 C 1413.83 254.711 1414.05 258.484 1413.94 262.986 C 1416.55 260.81 1419.41 258.053 1422.59 257.075 L 1423.06 258.149 C 1419.66 265.323 1416.63 265.233 1413.79 268.996 C 1376.66 298.938 1336.12 335.563 1299.29 366.987 L 1131.81 508.399 L 1127.88 509.205 C 1122.65 507.164 1096.19 506.874 1089.85 506.761 L 1084.98 506.929 C 1072.28 505.98 1058.69 506.007 1045.89 505.825 L 1245.79 355.897 C 1301.19 314.118 1358.01 270.004 1413.82 229.287 z"/>
<path transform="translate(0,0)" fill="rgb(166,220,241)" d="M 1413.57 250.249 C 1413.83 254.711 1414.05 258.484 1413.94 262.986 C 1416.55 260.81 1419.41 258.053 1422.59 257.075 L 1423.06 258.149 C 1419.66 265.323 1416.63 265.233 1413.79 268.996 C 1376.66 298.938 1336.12 335.563 1299.29 366.987 L 1131.81 508.399 L 1127.88 509.205 C 1122.65 507.164 1096.19 506.874 1089.85 506.761 C 1121.39 482.782 1154.69 455.644 1186.07 430.942 C 1262.29 371.203 1338.13 310.971 1413.57 250.249 z"/>
<path transform="translate(0,0)" fill="rgb(42,94,134)" d="M 1413.94 262.986 C 1416.55 260.81 1419.41 258.053 1422.59 257.075 L 1423.06 258.149 C 1419.66 265.323 1416.63 265.233 1413.79 268.996 C 1376.66 298.938 1336.12 335.563 1299.29 366.987 L 1131.81 508.399 L 1127.88 509.205 L 1127.46 508.214 C 1128.43 504.595 1288.5 371.566 1304.61 357.433 C 1335.34 330.479 1382.27 291.707 1413.94 262.986 z"/>
<path transform="translate(0,0)" fill="rgb(42,94,134)" d="M 1413.95 244.155 C 1416.47 241.92 1419.21 239.023 1422.38 238.215 L 1422.98 239.223 C 1419.89 246.215 1417.08 246 1413.57 250.249 C 1338.13 310.971 1262.29 371.203 1186.07 430.942 C 1154.69 455.644 1121.39 482.782 1089.85 506.761 L 1084.98 506.929 C 1086.04 503.587 1152.71 452.321 1160.07 446.553 C 1215.01 403.613 1269.72 360.378 1324.19 316.849 C 1353.76 293.222 1385.27 268.618 1413.95 244.155 z"/>
<path transform="translate(0,0)" fill="rgb(166,220,241)" d="M 561.947 218.844 L 562.131 227.434 L 562.036 232.567 L 323.004 437.421 C 283.205 471.451 238.833 507.723 200.111 542.399 L 193.94 543.061 C 186.225 543.221 175.427 544.214 168.417 544.005 C 178.403 536.953 198.365 519.268 208.823 510.618 L 296.279 438.152 L 561.947 218.844 z"/>
<path transform="translate(0,0)" fill="rgb(42,94,134)" d="M 562.131 227.434 L 562.036 232.567 L 323.004 437.421 C 283.205 471.451 238.833 507.723 200.111 542.399 L 193.94 543.061 C 198.063 538.13 217.617 522.184 223.277 517.395 L 288.025 462.448 L 426.12 344.196 C 471.302 305.328 516.526 265.729 562.131 227.434 z"/>
<path transform="translate(0,0)" fill="rgb(166,220,241)" d="M 1455.97 219.003 L 1721.47 439.178 L 1802 505.938 C 1813.44 515.537 1836.41 535.928 1847.7 543.897 C 1841.64 543.486 1821.11 543.78 1817.5 542.365 L 1815.5 542.164 C 1802.47 529.694 1787.02 517.141 1773.16 505.349 L 1707.66 449.403 C 1623.37 377.583 1539.44 305.334 1455.89 232.659 L 1455.84 227.699 L 1455.97 219.003 z"/>
<path transform="translate(0,0)" fill="rgb(42,94,134)" d="M 1455.84 227.699 C 1489.19 255.26 1524.03 286.49 1556.94 314.971 L 1714.69 450.498 C 1742.3 473.804 1769.78 497.267 1797.12 520.886 C 1802.1 525.249 1817.18 537.376 1820 540.969 L 1819.81 541.943 L 1817.5 542.365 L 1815.5 542.164 C 1802.47 529.694 1787.02 517.141 1773.16 505.349 L 1707.66 449.403 C 1623.37 377.583 1539.44 305.334 1455.89 232.659 L 1455.84 227.699 z"/>
<path transform="translate(0,0)" fill="rgb(42,94,134)" d="M 603.734 218.036 C 600.281 215.562 596.624 213.667 595.272 209.818 L 595.927 208.494 C 599.116 208.499 601.496 210.973 604.03 213.027 C 629.81 232.608 657.959 252.033 684.379 271.154 L 903.319 428.234 L 975.829 480.672 C 983.093 485.962 1004.18 500.739 1009.45 506.091 L 1003.82 505.833 L 603.734 218.036 z"/>
<path transform="translate(0,0)" fill="rgb(42,94,134)" d="M 162.69 544.266 C 181.741 526.74 209.727 504.92 230.031 488.094 L 359.075 381.207 L 489.188 273.668 C 511.5 255.189 539.564 230.616 562.32 213.598 L 561.947 218.844 L 296.279 438.152 L 208.823 510.618 C 198.365 519.268 178.403 536.953 168.417 544.005 L 162.69 544.266 z"/>
<path transform="translate(0,0)" fill="rgb(42,94,134)" d="M 1455.8 213.865 L 1853.97 544.186 L 1847.7 543.897 C 1836.41 535.928 1813.44 515.537 1802 505.938 L 1721.47 439.178 L 1455.97 219.003 L 1455.8 213.865 z"/>
<path transform="translate(0,0)" fill="rgb(42,94,134)" d="M 1414.04 223.966 C 1419.28 220.113 1422.29 217.715 1428.19 214.964 C 1422.98 221.78 1420.58 223.938 1413.82 229.287 C 1358.01 270.004 1301.19 314.118 1245.79 355.897 L 1045.89 505.825 L 1039.74 505.991 C 1045.6 500.348 1072.26 481.19 1079.49 475.797 L 1159.86 415.55 L 1414.04 223.966 z"/>
<path transform="translate(0,0)" fill="rgb(253,254,254)" d="M 1707.18 99.1448 C 1735.31 96.6058 1752 105.516 1768.45 127.802 C 1793.74 121.849 1811.38 129.955 1823.98 152.443 C 1851.26 146.346 1868.34 157.811 1874.85 184.804 C 1833.61 185.645 1789.7 184.883 1748.25 184.867 L 1576.87 184.941 C 1583.26 165.095 1595.55 161.847 1613.99 160.099 C 1623.74 140.447 1640.02 131.065 1661.64 138.543 C 1672.14 114.934 1682.1 105.695 1707.18 99.1448 z"/>
<path transform="translate(0,0)" fill="rgb(253,254,254)" d="M 275.892 201.181 C 294.774 200.268 302.787 207.121 314.363 220.636 C 333.522 218.619 339.152 221.422 350.423 236.876 C 352.801 236.503 355.208 236.343 357.615 236.396 C 369.033 236.586 382.45 245.009 381.845 257.355 C 378.7 260.34 308.709 259.019 298.61 258.993 L 187.714 258.922 C 197.64 237.092 200.95 248.6 211.439 241.107 C 226.77 230.154 220.546 223.188 244.341 227.073 C 252.048 211.973 258.61 205.099 275.892 201.181 z"/>
<path transform="translate(0,0)" fill="rgb(253,254,254)" d="M 1131.41 80.206 C 1150.67 78.5003 1160.77 82.7376 1172.21 98.4251 C 1191.66 97.007 1197.72 99.1665 1209.37 114.93 C 1228.78 112.269 1236.47 119.318 1242.19 136.759 C 1215.14 137.157 1187.59 136.905 1160.5 136.908 L 1046.87 136.83 C 1052.84 124.22 1057.09 120.86 1071.4 119.801 C 1080.18 105.666 1087.02 102.924 1103.16 105.346 C 1110.62 90.6949 1116.03 85.6286 1131.41 80.206 z"/>
<path transform="translate(0,0)" fill="rgb(253,254,254)" d="M 843.824 204.206 C 858.29 203.093 866.56 209.121 874.906 219.927 C 890.549 217.701 895.817 221.285 905.402 232.661 C 921.453 230.794 927.007 237.425 932.949 250.872 C 911.313 251.684 885.233 251.009 863.25 251.026 L 806.328 251.051 C 796.582 251.058 782.056 251.469 772.774 250.525 L 772.372 249.055 C 777.693 235.922 784.969 240.445 790.665 236.287 C 801.354 228.484 798.788 223.067 817.056 224.939 C 824.093 212.729 829.323 206.874 843.824 204.206 z"/>
</svg>